# xmcd
#
# Track frame offsets: 
#        150
#        14477
#        34367
#        56542
#        84149
#        104335
#        127997
#        155446
#        173580
#        196156
#        220485
#        237465
#
# Disc length: 3401 seconds
#
# Revision: 0
# Processed by: cddbd v1.5.2PL0 Copyright (c) Steve Scherf et al.
# Submitted via: ExactAudioCopy v1.0b4
#
DISCID=9a0d470c
DTITLE=Amanda Fish - Free
DYEAR=2018
DGENRE=Blues
TTITLE0=2020
TTITLE1=Not Again
TTITLE2=Anymore
TTITLE3=The Ballad Of Lonesome Cowboy Bill
TTITLE4=Blessed
TTITLE5=Going Down
TTITLE6=You Could Be
TTITLE7=Bullet
TTITLE8=Here We Are
TTITLE9=Don't Mean A Thing
TTITLE10=The Bored And Lonely
TTITLE11=Free
EXTD=
EXTT0=
EXTT1=
EXTT2=
EXTT3=
EXTT4=
EXTT5=
EXTT6=
EXTT7=
EXTT8=
EXTT9=
EXTT10=
EXTT11=
PLAYORDER=
